<svg id="Layer_1" data-name="Layer 1" xmlns="http://www.w3.org/2000/svg" viewBox="0 0 350 350"><defs><style>.cls-1{fill:#ebebea;}.cls-2{fill:#795d88;}.cls-3{fill:#594265;}.cls-4{fill:#9075a0;}.cls-5{fill:#c18f7c;}.cls-6{fill:#a588b9;}.cls-7{fill:#6f7273;}.cls-8{fill:#737475;}.cls-9{fill:#4f5353;}.cls-10{fill:#f4cab2;}.cls-11{fill:#494749;}.cls-12,.cls-16{fill:#2b2b2b;}.cls-12{opacity:0.1;}.cls-13{fill:#fbe3d4;}.cls-14{fill:#fff0e8;}.cls-15{fill:#9b9fa0;}</style></defs><title>Darrell</title><g id="Backgrounds"><rect class="cls-1" width="350" height="350"/></g><g id="Darrell"><path class="cls-2" d="M310.6,312.57l-16.83-5.27-18.06,14.43C288.75,315.46,297.05,317.55,310.6,312.57Z"/><path class="cls-3" d="M235.8,342.39,312,312.07l-70.41-69.16L214.9,345.14C221.85,344.12,228.82,343.16,235.8,342.39Z"/><path class="cls-4" d="M89.34,352.05c1.49,0,4.42-.72,5.94-.66,37,.05,74.85,7.37,111.75,3.62,9.93-1.49,20.93-1.77,30.92-2.87,7.32-3.91,16.55,6,23.92,2.15l-14.64-88.94-6.74-11.64-1-1.79-29.69-14-100.1,9.75L68.85,270.83l3.36,66.58C78.47,340.29,83.37,348.59,89.34,352.05Z"/><path class="cls-2" d="M95,347l4.36,0-9-3.89-2.19,2.51c.77.43,1.53.89,2.3,1.33C92,346.92,93.52,346.92,95,347Z"/><polygon class="cls-5" points="171.71 250.16 162.88 273.78 198.22 308.76 212.35 267.54 171.71 250.16"/><polygon class="cls-6" points="211.35 270.45 234.51 293.4 233.45 245.56 211.35 270.45"/><polygon class="cls-6" points="148.73 305.65 109.67 247.68 124.7 233.19 148.73 234.6 174.89 259.35 162.88 273.78 148.73 305.65"/><polygon class="cls-7" points="109.67 94.98 108.35 74.01 180.31 49.74 210.24 87.91 109.67 94.98"/><polygon class="cls-8" points="194.33 74.01 108.35 74.01 82.99 141.64 214.48 129.97 194.33 74.01"/><polygon class="cls-9" points="224.14 98.28 224.14 65.11 180.31 49.74 196.1 97.1 224.14 98.28"/><polygon class="cls-10" points="131.24 216.57 186.38 251.92 171.71 106.76 123.52 131.74 131.24 216.57"/><polygon class="cls-11" points="111.26 197.31 102.96 201.2 88.11 231.78 124.7 233.19 131.24 200.67 111.26 197.31"/><polygon class="cls-10" points="103.67 160.73 95.16 170.74 102.96 201.2 129.91 202.18 119.36 160.73 103.67 160.73"/><polygon class="cls-9" points="171.71 245.56 154.27 230.83 137.95 210.74 136.89 162.14 116.21 171.51 124.7 233.19 162.88 273.78 171.71 245.56"/><polygon class="cls-12" points="167.11 175.75 153.56 190.77 116.21 171.51 113.74 158.96 167.11 175.75"/><polygon class="cls-9" points="262.31 134.1 270.53 149.56 258.66 163.38 238.51 134.1 262.31 134.1"/><polygon class="cls-13" points="259.02 127.59 258.66 163.38 256.66 178.34 258.43 186.74 258.07 222.7 240.49 253.71 177.95 258.67 154.27 230.83 152.27 117.25 227.56 105.23 259.02 127.59"/><polygon class="cls-11" points="233.45 94.98 245.58 121.14 201.4 122.2 139.54 125.03 151.56 105.23 233.45 94.98"/><polygon class="cls-9" points="204.94 99.58 196.1 97.1 149.79 83.67 82.99 141.64 95.19 171.1 116.21 171.51 136.01 165.41 166.05 109.03 201.4 122.2 204.94 99.58"/><polygon class="cls-10" points="168.7 175.04 153.56 190.77 189.56 197.84 198.22 214.22 205.64 205.44 212.89 209.33 225.56 196.04 258.43 186.74 168.7 175.04"/><polygon class="cls-13" points="182.55 237.82 187.11 259.35 231.44 255.81 233.45 229.77 216.25 221.35 184.79 227.71 182.55 237.82"/><polygon class="cls-5" points="186.38 229.77 187.11 235.31 197.1 238.67 221.55 237.25 229.15 233.07 227.44 227.71 191.68 227.71 186.38 229.77"/><path class="cls-7" d="M244.17,232.13,235,218.34l-17-5.26-13.19-6.64-6.6,7.78-19,7.13-6.13,12.19-18.85-2.71,8.61,42.95L247.66,268l10.41-45.25Zm-15,21-41.71,3-.33-20.83,11.11-4.95,20.77-.59,10.16,3.3Z"/><polygon class="cls-9" points="209.97 205.44 218.01 213.09 209 222.94 198.22 214.22 209.97 205.44"/><polygon class="cls-14" points="188.56 173.69 201.05 189.18 198.22 214.22 218.01 213.09 214.36 189.05 224.14 168.87 190.21 168.87 188.56 173.69"/><polygon class="cls-7" points="201.4 122.2 196.1 97.1 224.14 65.11 241.2 71.08 277.4 141.29 270.53 149.56 233.22 106.65 201.4 122.2"/><polygon class="cls-5" points="101.54 177.69 113.12 179.11 115.15 195.79 101.54 177.69"/><path class="cls-3" d="M95.28,351.39c6.58,0,12.15,1.77,18.73,1.92L118,318,68.85,270.83l-15.49,81.4c11.71,4.15,27.17-5.46,37.81.71C92.66,352.9,93.76,351.33,95.28,351.39Z"/><polygon class="cls-8" points="106.31 171.32 117.98 160.26 153.12 165.41 162.16 175.04 153.38 181.95 116.21 171.51 106.31 171.32"/><polygon class="cls-9" points="224.14 175.75 214.36 165.54 225.77 158.11 245.58 158.11 258.64 163.38 224.14 175.75"/><polygon class="cls-9" points="201.4 168.5 201.05 165.41 189.97 157.54 164.28 158.84 153.12 165.41 196.1 175.75 201.4 168.5"/><polygon class="cls-8" points="196.1 169.09 198.22 165.41 216.84 165.68 219.54 172.33 196.1 172.33 196.1 169.09"/><polygon class="cls-15" points="201.05 165.41 153.12 165.41 153.56 190.77 201.05 189.18 201.05 165.41"/><polygon class="cls-15" points="214.36 165.54 214.36 189.05 258.43 186.74 258.64 163.38 214.36 165.54"/><polygon class="cls-13" points="158.73 178.34 184.96 171.1 195.33 181.45 195.21 184.76 158.98 186.18 158.73 178.34"/><polygon class="cls-10" points="158.45 169.74 195.75 169.74 195.33 181.45 183.99 173.79 158.73 178.34 158.45 169.74"/><polygon class="cls-13" points="219.07 181.45 231.45 169.43 254.71 175.04 254.42 182.82 219.07 184.59 219.07 181.45"/><polygon class="cls-10" points="219.07 169.92 254.95 168.5 254.71 175.04 234.51 172.03 219.07 181.45 219.07 169.92"/><ellipse class="cls-16" cx="182.96" cy="178.93" rx="5.31" ry="5.04" transform="translate(-72.94 181.78) rotate(-45)"/><ellipse class="cls-16" cx="234.63" cy="177.69" rx="5.31" ry="5.04" transform="translate(-56.93 217.95) rotate(-45)"/><polygon class="cls-2" points="257.97 330.58 311.99 312.07 316.99 353.29 261.87 354.29 257.97 330.58"/></g></svg>