<svg xmlns="http://www.w3.org/2000/svg" viewBox="0 0 600 450"><defs><style>.cls-1,.cls-10,.cls-11,.cls-12,.cls-13,.cls-15,.cls-16,.cls-17,.cls-19,.cls-2,.cls-20,.cls-21,.cls-22,.cls-23,.cls-3,.cls-4,.cls-5,.cls-7,.cls-8,.cls-9{fill-rule:evenodd;}.cls-1,.cls-6{opacity:0.1;}.cls-2,.cls-26{fill:#6f7173;}.cls-28,.cls-3{fill:#4f5253;}.cls-25,.cls-4{fill:#a3a3a3;}.cls-27,.cls-5{fill:#c4c4c4;}.cls-24,.cls-7{fill:#e5c828;}.cls-36,.cls-8{fill:#b58b00;}.cls-9{fill:#ececeb;}.cls-10,.cls-39{fill:#ccad14;}.cls-11{fill:#cececd;}.cls-12,.cls-37{fill:#856400;}.cls-13{fill:#f2bd68;}.cls-14{fill:#9e7700;}.cls-15{fill:#e2a942;}.cls-16{fill:#f4d75d;}.cls-17{fill:#bc8f2d;}.cls-18{fill:none;stroke:#858686;stroke-miterlimit:10;stroke-width:1.07px;}.cls-19{fill:#bf8f00;}.cls-20{fill:#dddddc;}.cls-21,.cls-29{fill:#dfbda5;}.cls-22{fill:#060808;opacity:0.2;}.cls-23,.cls-35{fill:#858686;}.cls-30{fill:#c3987b;}.cls-31{fill:#8b6651;}.cls-32{fill:#e8cab6;}.cls-33{fill:#fff;}.cls-34{fill:#474747;}.cls-38{fill:#755800;}</style></defs><g id="explorers"><polygon class="cls-1" points="593.47 401.31 477.11 375.5 426.02 381.24 143.04 349.34 0.26 397.28 141.72 437 356.96 409.66 481.12 425.13 593.47 401.31"/><polygon class="cls-2" points="265.78 314.73 262.34 379.89 246.32 386.62 243.35 315.12 265.78 314.73"/><polygon class="cls-2" points="179.25 332.77 181.65 416.46 200.85 407.2 194.34 332.77 179.25 332.77"/><polygon class="cls-3" points="246.32 386.62 235.27 384.8 226.87 324.55 246.32 315.95 246.32 386.62"/><polygon class="cls-4" points="181.65 335.97 181.65 416.46 160.36 414 168.3 334.55 175.1 332.77 181.65 335.97"/><polygon class="cls-2" points="34.69 400.59 41.31 395.44 53.32 321.89 33.09 312.83 34.69 400.59"/><polygon class="cls-4" points="11.3 317.77 19.1 398.03 34.69 400.59 37.88 320.24 27.58 310.96 11.3 317.77"/><polygon class="cls-3" points="119.89 323.23 119.89 375.1 137.04 376.84 139.37 321.25 119.89 323.23"/><polygon class="cls-2" points="137.04 376.84 149.86 370.69 147.16 326.43 137.04 322.94 137.04 376.84"/><polygon class="cls-4" points="181.65 315.12 184.35 325.24 181.65 335.97 11.3 317.77 8.3 284.21 181.65 315.12"/><polygon class="cls-2" points="265.78 285.94 265.78 314.73 181.65 335.97 181.65 315.12 265.78 285.94"/><polygon class="cls-1" points="231.38 282.05 190.05 288.31 223.76 300.52 265.78 285.94 231.38 282.05"/><polygon class="cls-5" points="265.78 285.94 181.65 321.25 8.3 284.21 89.28 265.95 265.78 285.94"/><polygon class="cls-6" points="83.03 294.74 134.23 306.54 164.09 292.85 83.03 294.74"/><polygon class="cls-7" points="465.11 17.52 436.95 414.73 457.59 417.18 476.46 199.88 486.71 18.75 465.11 17.52"/><polygon class="cls-8" points="486.71 18.75 497.77 23.66 470.74 412.27 457.59 417.18 486.71 18.75"/><polygon class="cls-7" points="441.42 92.24 368.76 399.89 387.76 404.75 430.95 236.94 462.66 96.27 441.42 92.24"/><polygon class="cls-8" points="461.51 96.27 471.9 101.7 401.34 402.76 387.76 404.75 461.51 96.27"/><polygon class="cls-7" points="502.31 132.51 558.9 402.39 538.56 406.23 504.15 258.94 480.92 135.61 502.31 132.51"/><polygon class="cls-8" points="480.92 135.61 470.28 140.13 525.12 404.22 538.56 406.23 480.92 135.61"/><polygon class="cls-5" points="587.99 72.92 597.39 74.15 583.2 298.47 574.71 301.3 578.03 177.52 587.99 72.92"/><polygon class="cls-8" points="589.1 57.56 598.5 61.25 597.39 74.15 587.99 72.92 586.05 65.86 589.1 57.56"/><polygon class="cls-9" points="339.37 60.02 464.23 60.7 587.93 73.71 574.71 301.3 328.03 282.38 339.37 60.02"/><polygon class="cls-10" points="339.37 60.02 339.9 46.39 589.1 57.56 587.99 72.92 339.37 60.02"/><polygon class="cls-7" points="499.32 61.74 498.3 80.17 446.09 77.51 446.91 59.49 499.32 61.74"/><polygon class="cls-11" points="163.25 226.69 173 221.97 173 237.87 163.08 246.69 163.25 226.69"/><polygon class="cls-12" points="49.75 266.66 143.32 270.29 140.39 294.02 49.75 284.08 49.75 266.66"/><polygon class="cls-11" points="140.39 273.83 154.61 266.53 173.53 262.33 173.53 280.1 140.39 294.02 140.39 273.83"/><polygon class="cls-13" points="49.75 266.66 86.3 255.28 173.53 262.33 140.39 273.83 49.75 266.66"/><polygon class="cls-14" points="119.39 269.45 120.86 260.26 119.39 251.74 38.5 249.05 38.5 263.63 119.39 269.45"/><polygon class="cls-11" points="119.39 251.74 152.53 244.92 152.53 259.08 119.39 269.45 119.39 251.74"/><polygon class="cls-15" points="152.53 244.92 78.94 240.78 38.5 249.05 119.39 254.1 152.53 244.92"/><polygon class="cls-12" points="165.2 226.69 74.56 229.56 74.56 246.1 163.08 246.69 165.2 226.69"/><polygon class="cls-13" points="173 221.97 88.69 220.93 74.56 229.56 163.25 229.05 173 221.97"/><polygon class="cls-14" points="152.53 210.08 64.81 207.72 66.76 226.05 152.53 226.05 152.53 210.08"/><polygon class="cls-11" points="66.76 207.72 57.68 200.43 57.68 215.03 66.76 226.05 66.76 207.72"/><polygon class="cls-15" points="57.68 200.43 138.89 200.43 152.53 210.08 66.76 210.08 57.68 200.43"/><polygon class="cls-16" points="531.73 283.1 515.13 281.64 519.31 223.18 535.9 224.64 531.73 283.1"/><polygon class="cls-10" points="506.84 280.91 490.25 279.45 495.08 211.69 511.68 213.15 506.84 280.91"/><polygon class="cls-17" points="556.62 285.3 540.03 283.84 542.87 243.97 559.46 245.44 556.62 285.3"/><line class="cls-18" x1="497.34" y1="92.61" x2="575.78" y2="98.39"/><line class="cls-18" x1="496.96" y1="98.88" x2="550.5" y2="102.82"/><line class="cls-18" x1="496.59" y1="105.14" x2="562.58" y2="110.01"/><line class="cls-18" x1="496.21" y1="111.41" x2="539.79" y2="114.63"/><line class="cls-18" x1="495.84" y1="117.68" x2="528.21" y2="120.07"/><line class="cls-18" x1="495.46" y1="123.95" x2="549" y2="127.9"/><line class="cls-18" x1="495.09" y1="130.22" x2="523.73" y2="132.33"/><polygon class="cls-19" points="409.85 157.59 433.58 143.51 457.31 137.97 464.63 172.72 440.04 169.5 409.85 157.59"/><polygon class="cls-10" points="457.31 137.97 437.24 116.44 419.44 136.56 409.85 157.59 457.31 137.97"/><polygon class="cls-16" points="437.24 116.44 401.63 114.74 401.63 140.32 409.85 157.59 437.24 116.44"/><polygon class="cls-7" points="401.63 114.74 368.44 151.63 389.14 157.59 409.85 157.59 401.63 114.74"/><polygon class="cls-12" points="368.44 151.63 375.34 179.22 393.89 171.55 409.85 157.59 368.44 151.63"/><polygon class="cls-10" points="375.34 179.22 390.65 199.2 401.63 182.55 409.85 157.59 375.34 179.22"/><polygon class="cls-8" points="409.85 157.59 390.65 199.2 429.47 206 422.68 181.79 409.85 157.59"/><polygon class="cls-7" points="429.47 206 464.63 172.72 409.85 157.59 429.47 206"/><path class="cls-20" d="M487,118.31a10.77,10.77,0,1,0-10.77,10.77A10.77,10.77,0,0,0,487,118.31Z"/><polygon class="cls-21" points="471.24 113.93 478.56 109.17 480.87 120.65 473.55 120.65 471.24 113.93"/><polygon class="cls-10" points="473.55 120.65 480.87 120.65 477.78 127.45 473.55 124.65 473.55 120.65"/><path class="cls-20" d="M455.12,99.11a10.77,10.77,0,1,0-10.77,10.77A10.77,10.77,0,0,0,455.12,99.11Z"/><polygon class="cls-21" points="439.32 94.73 446.64 89.97 448.95 101.44 441.63 101.44 439.32 94.73"/><polygon class="cls-13" points="441.63 101.44 448.95 101.44 445.86 108.25 441.63 105.45 441.63 101.44"/><path class="cls-20" d="M396.88,100.67a10.77,10.77,0,1,0-10.77,10.77A10.77,10.77,0,0,0,396.88,100.67Z"/><polygon class="cls-21" points="381.08 96.29 388.4 91.53 390.71 103.01 383.39 103.01 381.08 96.29"/><polygon class="cls-16" points="383.39 103.01 390.71 103.01 387.63 109.81 383.39 107.01 383.39 103.01"/><path class="cls-20" d="M473.59,210.68a10.77,10.77,0,1,0-10.77,10.77A10.77,10.77,0,0,0,473.59,210.68Z"/><polygon class="cls-21" points="457.8 206.3 465.12 201.54 467.43 213.02 460.11 213.02 457.8 206.3"/><polygon class="cls-7" points="460.11 213.02 467.43 213.02 464.34 219.82 460.11 217.02 460.11 213.02"/><polygon class="cls-17" points="518.71 154.17 519.63 159.65 523.48 164.12 525.03 160.12 518.71 154.17"/><polygon class="cls-17" points="525.91 169.64 513.44 173.15 516.76 177.62 527.06 176.14 527.26 174.37 525.91 169.64"/><polygon class="cls-17" points="533.49 172.13 533.68 162.91 530.57 155.78 528.48 168.09 533.49 172.13"/><polygon class="cls-13" points="551.43 192.52 529.34 167.41 527.25 168.63 525.51 171.04 545.99 198.61 551.43 192.52"/><polygon class="cls-15" points="545.98 203.7 527.06 176.14 525.51 171.04 546.09 197.82 546.81 200.48 545.98 203.7"/><polygon class="cls-17" points="551.43 192.52 551.79 197.79 545.98 203.7 546.09 197.82 551.43 192.52"/><polygon class="cls-15" points="529.34 167.41 530.57 155.78 518.71 154.17 524.16 160.81 518.44 165.92 511.8 160.16 513.44 173.15 525.51 171.04 529.34 167.41"/><polygon class="cls-7" points="520.23 167.94 525.75 163 527.48 165.01 521.92 169.95 520.23 167.94"/><path class="cls-10" d="M522,166.39l-.82.73.78,2.83.79-.7-.75-2.86Zm3.54.38,1-.88-.73-2.89-.89.79.63,3Zm-1.89,1.67,1.07-.95-1-2.67-.75.67Z"/><polygon class="cls-22" points="545.67 185.98 540.19 190.15 539.65 194.48 536.16 189.39 536.93 185.91 542.14 181.96 545.67 185.98"/><polygon class="cls-10" points="553.67 156.23 551.58 152.47 548.36 149.47 543.18 148.98 543 151.02 546.04 153.23 545.12 163.68 549.46 159.59 553.67 156.23"/><polygon class="cls-16" points="551.85 155.06 548.36 149.47 554.45 150.94 558.91 156.64 555.49 157.4 551.85 155.06"/><polygon class="cls-5" points="523.58 190.99 549.42 168.45 550.42 171.24 537.64 185.1 523.74 197.55 523.58 190.99"/><polygon class="cls-23" points="523.74 197.55 550.42 171.24 552.5 172.98 529.71 198.89 523.74 197.55"/><polygon class="cls-7" points="551.85 155.06 563.79 157.73 569.6 173.93 557.09 173.03 550.87 158.03 551.85 155.06"/><polygon class="cls-16" points="551.85 155.06 557.57 171.91 554.85 175.2 549.62 180.28 545.12 163.68 551.85 155.06"/><polygon class="cls-10" points="557.57 171.91 569.61 173.93 563.85 181.63 549.62 180.28 557.57 171.91"/><polygon class="cls-7" points="558.76 175.24 563.69 175.7 564.71 178.24 557.74 178.35 558.76 175.24"/><polygon class="cls-16" points="558.76 175.24 556.15 178.07 559.29 177.73 558.76 175.24"/><polygon class="cls-13" points="566.99 177.42 555.67 176.49 557.53 181.54 563.68 183.54 568.97 182.11 566.99 177.42"/><polygon class="cls-15" points="555.67 176.49 558.24 181.1 557.14 185.18 553.78 190.82 551.13 184.28 555.67 176.49"/><polygon class="cls-17" points="558.24 181.1 568.97 182.11 564.18 189.88 553.78 190.82 558.24 181.1"/><polygon class="cls-9" points="135 251.82 130.78 221.33 118.82 221.71 117.28 251.15 95.28 288.18 103.06 297.81 127.54 297.05 152.02 296.28 159.09 286.18 135 251.82"/><polygon class="cls-24" points="154.76 286.18 141.74 267.6 110.82 269.01 99.59 287.9 104.83 294.39 150.01 292.97 154.76 286.18"/><polygon class="cls-16" points="113.8 287.81 110.95 291.16 107.34 288.5 110.2 285.15 113.8 287.81"/><polygon class="cls-16" points="111.92 281.24 110.69 282.68 109.14 281.54 110.37 280.1 111.92 281.24"/><polygon class="cls-16" points="118.03 287.7 116.8 289.14 115.25 288 116.48 286.55 118.03 287.7"/><polygon class="cls-16" points="119.39 282.44 118.16 283.88 116.6 282.74 117.83 281.29 119.39 282.44"/><polygon class="cls-25" points="92.31 122.05 83.34 118.34 48.75 170.08 69.44 160.47 92.31 122.05"/><polygon class="cls-25" points="73.57 98.15 90.98 94.38 92.05 116.55 83.34 118.34 73.57 98.15"/><polygon class="cls-25" points="87.55 146.03 96.49 161.62 103.04 159.75 98.3 141.21 87.55 146.03"/><polygon class="cls-26" points="74.23 111.89 85.67 150.94 105.42 146.21 96.68 107.37 74.23 111.89"/><polygon class="cls-25" points="91.89 172 98.32 199.58 107.16 199.16 98.18 167.81 91.89 172"/><polygon class="cls-27" points="86.09 175.72 83.11 171.73 117.99 162.65 118.27 168.4 86.09 175.72"/><polygon class="cls-27" points="48.75 170.08 69.44 160.47 100.1 200.32 91.46 204.88 48.75 170.08"/><polygon class="cls-28" points="48.67 206.96 55.28 195.45 120.34 195.77 128.46 205.37 48.67 206.96"/><polygon class="cls-25" points="115.88 189 120.34 195.77 55.28 195.45 57.96 189.87 115.88 189"/><polygon class="cls-29" points="354.24 160.23 356.33 154.66 374.19 138.78 349.6 126.07 344.23 153.62 345.61 149.24 354.24 160.23"/><polygon class="cls-30" points="344.92 147.73 339.56 124.82 343.74 122.28 355.11 140.74 347.65 152.64 344.92 147.73"/><polygon class="cls-30" points="374.19 138.78 375.43 121.15 357.98 115.01 349.6 126.07 374.19 138.78"/><polygon class="cls-30" points="231.71 191.26 219.94 141.71 232.5 135.18 229.22 98.42 241.04 90.37 260.9 175.67 276.44 176.03 289.94 174.92 272.64 227.23 254.04 227.06 233.5 198.57 231.71 191.26"/><polygon class="cls-31" points="273.81 175.97 276.44 176.03 289.94 174.92 285.18 214.27 264.44 208.9 251.36 185.38 262.55 182.03 273.81 175.97"/><polygon class="cls-29" points="306.15 85.52 317.54 167.78 262.55 182.03 243.31 137.15 242.73 97.51 249.89 84.23 276.85 93.54 289.99 77.59 306.15 85.52"/><polygon class="cls-30" points="252.38 114.58 267.25 118.68 278.54 137.41 290.83 134.41 288.73 127.68 294.37 114.48 304.16 105.56 288.78 108.14 271.89 111.2 252.38 114.58"/><polygon class="cls-32" points="286.17 108.47 290.83 134.41 278.54 137.41 271.89 111.2 286.17 108.47"/><polygon class="cls-29" points="219.94 141.71 232.5 135.18 242.81 156.32 226.74 166.56 219.94 141.71"/><polygon class="cls-28" points="309.63 109.76 325.92 54.38 302.46 65.4 235.42 67.02 204.74 114.78 217.98 117.2 231.16 101.83 242.73 97.51 247.91 88.04 278.64 98.52 306.81 77.28 306.88 90.95 309.63 109.76"/><polygon class="cls-26" points="325.92 54.38 302.46 65.4 278.64 98.52 306.88 90.95 325.92 54.38"/><polygon class="cls-25" points="242.73 97.51 278.64 98.52 235.42 67.02 242.73 97.51"/><polygon class="cls-26" points="231.16 101.83 218.94 106.59 204.74 114.78 219.94 141.71 232.5 135.18 244.84 153.48 231.16 101.83"/><path d="M260.79,123.21c.11,2.74,1.94,4.8,4.12,4.52s3.6-2.69,3.48-5.41-1.94-4.81-4.11-4.52S260.68,120.48,260.79,123.21Z"/><path d="M292.69,117.81c.11,2.72,1.94,4.79,4.12,4.51s3.6-2.69,3.48-5.42-1.94-4.8-4.11-4.51S292.58,115.06,292.69,117.81Z"/><polygon class="cls-31" points="303.51 142.34 267.08 152.29 278.11 162.26 299.43 156.23 303.51 142.34"/><polygon class="cls-33" points="298.91 146.49 273.48 153.31 279.06 159.66 296.94 154.6 298.91 146.49"/><polygon class="cls-31" points="231.04 181.76 229.44 176.18 226.74 166.56 238.14 159.12 231.04 181.76"/><polygon class="cls-31" points="232.84 153.92 230.54 143.5 225.21 146.13 232.84 153.92"/><polygon class="cls-31" points="290.83 134.41 286.45 142.47 278.54 137.41 290.83 134.41"/><polygon class="cls-34" points="288.78 108.14 294.07 100.82 304.16 105.56 288.78 108.14"/><polygon class="cls-34" points="252.38 114.58 257.68 107.26 267.99 111.98 252.38 114.58"/><polygon class="cls-28" points="279.8 177.6 290.93 160.79 305.04 170.97 294.4 180.72 279.8 177.6"/><polygon class="cls-35" points="290.93 160.79 305.04 170.97 294.4 180.72 290.93 160.79"/><polygon class="cls-29" points="354.24 161.23 356.33 155.66 374.19 139.78 349.6 127.07 344.23 154.62 345.61 150.24 354.24 161.23"/><polygon class="cls-30" points="344.92 148.73 339.56 125.82 343.74 123.28 355.11 141.74 347.65 153.64 344.92 148.73"/><polygon class="cls-30" points="374.19 139.78 375.43 122.15 357.98 116.01 349.6 127.07 374.19 139.78"/><polygon class="cls-30" points="319.25 203.75 333.83 219.73 352.54 200.71 356.33 155.66 344.98 149.12 319.25 203.75"/><polygon class="cls-36" points="299.5 206.05 313.56 189.11 326.92 187.1 350.33 213.23 309.23 252.16 299.5 206.05"/><polygon class="cls-36" points="208.46 198.23 171 252.31 176.97 253.58 186.53 261.32 211.19 261.17 215.25 251.79 227.1 218.73 208.46 198.23"/><polygon class="cls-37" points="264.82 331.04 255.71 352.67 225.99 353.22 212.63 348.87 213.97 291.56 253.78 313.04 264.82 331.04"/><polygon class="cls-37" points="314.04 343.89 315.09 291.02 265.58 305.34 264.82 331.04 274.23 352.97 309.61 354.85 314.04 343.89"/><polygon class="cls-38" points="274.23 352.97 285.73 381.48 313.03 391.01 314.75 376.28 314.04 343.89 274.23 352.97"/><polygon class="cls-38" points="241.86 386.3 255.71 352.67 212.63 348.87 211.83 384.71 226.12 393.91 241.86 386.3"/><polygon class="cls-38" points="312.01 290.73 264.82 331.04 213.97 291.56 312.01 290.73"/><polygon class="cls-39" points="274.67 226.59 268.01 256.22 242.2 261.57 215.25 251.79 208.46 198.23 229.76 192.59 266.17 202.26 274.67 226.59"/><polygon class="cls-24" points="298.48 187.64 266.17 202.26 266.63 215.96 266.63 215.96 268.01 256.22 295.62 257.1 313.96 246.37 313.56 189.11 298.48 187.64"/><polygon class="cls-14" points="253.16 255.23 215.25 251.79 217.34 298.02 270.64 309.01 268.01 256.22 253.16 255.23"/><polygon class="cls-39" points="313.96 246.37 268.01 256.22 268.16 268.23 270.64 309.01 315.09 291.02 313.96 246.37"/><polygon class="cls-36" points="231.33 190.07 221.83 195.07 253.55 217.35 266.17 202.26 231.33 190.07"/><polygon class="cls-36" points="266.17 202.26 277.99 214.9 298.48 187.64 288.83 182.57 266.17 202.26"/><polygon class="cls-39" points="314.75 376.28 335.63 396.06 307.48 400.39 285.4 395.61 285.73 381.48 314.75 376.28"/><polygon class="cls-36" points="335.57 402.14 285.33 401.69 285.4 395.61 335.63 396.06 335.57 402.14"/><polygon class="cls-39" points="241.86 386.3 249.27 404.55 234.74 407.77 207.21 404.03 211.83 384.71 241.86 386.3"/><polygon class="cls-36" points="249.02 411.8 206.9 411.07 207.21 404.03 249.27 404.55 249.02 411.8"/><polygon class="cls-30" points="185.49 266.51 207.55 298.85 218.47 293.87 221.53 288.72 211.19 261.17 186.89 261.3 185.49 266.51"/><polygon class="cls-29" points="221.53 288.72 237.84 295.62 231.77 306.8 217.84 314.51 207.55 298.85 221.53 288.72"/><polygon class="cls-31" points="176.97 253.58 185.49 266.51 210.92 261.1 176.97 253.58"/><polygon class="cls-30" points="237.84 295.62 244.2 316.34 226.58 325.08 217.84 314.51 237.84 295.62"/><line class="cls-18" x1="341.22" y1="266.29" x2="469.22" y2="277.46"/><line class="cls-18" x1="341.66" y1="260.03" x2="425.87" y2="267.37"/><line class="cls-18" x1="342.1" y1="253.76" x2="385.89" y2="257.58"/><line class="cls-18" x1="342.55" y1="247.5" x2="433.49" y2="255.43"/><line class="cls-18" x1="342.99" y1="241.23" x2="406.99" y2="246.82"/><line class="cls-18" x1="343.43" y1="234.97" x2="451.22" y2="244.38"/><line class="cls-18" x1="343.88" y1="228.71" x2="387.66" y2="232.53"/><line class="cls-18" x1="344.32" y1="222.44" x2="404.95" y2="227.73"/></g></svg>