<svg id="Layer_1" data-name="Layer 1" xmlns="http://www.w3.org/2000/svg" viewBox="0 0 350 350"><defs><style>.cls-1{fill:#ebebea;}.cls-2{fill:#2b2b2b;}.cls-3{fill:#3f342d;}.cls-4{fill:#185e60;}.cls-14,.cls-5{fill:#a67e62;}.cls-6{fill:#be9b82;}.cls-7{fill:#c8ac9a;}.cls-8{fill:#98c16c;}.cls-9{fill:#1d7678;}.cls-10,.cls-11,.cls-12,.cls-13,.cls-14,.cls-9{fill-rule:evenodd;}.cls-10{fill:#369395;}.cls-11{fill:#9ecd7e;}.cls-12{fill:#bfda8e;}.cls-13{fill:#50a8a9;}.cls-15{fill:#825941;}.cls-16{fill:#614e40;}.cls-17{fill:#543042;}.cls-18{fill:#fff;}.cls-19{fill:#57433c;}.cls-20{fill:#493a30;}.cls-21{fill:#7a695e;}.cls-22{fill:#7a6b5e;}</style></defs><title>Leeza</title><g id="Backgrounds"><rect class="cls-1" width="350" height="350"/></g><g id="Leeza"><polygon class="cls-2" points="109.29 247.61 107.47 310.99 147.49 316.35 150.01 284.6 150.97 259.01 109.29 247.61"/><polygon class="cls-3" points="107.47 310.99 95.75 294.85 82 276.42 88.06 211.53 114.2 248.94 107.47 310.99"/><path class="cls-4" d="M233.84,351a272.33,272.33,0,0,1,54.91,1.87l-27.46-67-35.88,32.5.18,33C228.33,351.33,231.08,351.2,233.84,351Z"/><path class="cls-4" d="M73.79,351c.55.32,1.23.27,1.79.58,4.69,1.45,9.26,0,14.09.92,10,.79,20.09,1,30.15.89,2.73,0,5.46-.09,8.19-.16l1.7-27.08L102.39,287,62.25,352.9C64.3,354.32,71.89,349.31,73.79,351Z"/><polygon class="cls-5" points="212.15 144.7 234.88 165.73 217.46 294.32 197.44 268.21 148.73 272.4 212.15 144.7"/><polygon class="cls-6" points="90.9 103.23 87.94 211.88 122.76 263.1 152.68 265.24 204.64 224.94 221.36 117.92 97.33 84.08 90.9 103.23"/><polygon class="cls-5" points="97.08 151.09 114.67 169.4 135.19 189.47 154.25 200.92 177.38 176.44 198.23 165.3 178.03 154.18 157.3 158 153.6 163.96 146.27 167.34 138.45 162.11 133.39 153.11 115 146.26 97.08 151.09"/><polygon class="cls-7" points="138.45 162.11 136.51 179.53 126.89 197.55 154.25 200.92 149.24 180.87 153.6 163.96 138.45 162.11"/><path class="cls-8" d="M186.39,327l.86-.18C188.69,306.46,187.88,311.58,186.39,327Z"/><path class="cls-8" d="M184.73,351.46c.59-6.91,1.16-19.25,1.66-24.42l-60.53,12.29s-.27,9-.73,14C145,352.87,164.85,351.41,184.73,351.46Z"/><path class="cls-9" d="M191.54,351.54c14.19.31,28.11.39,42.3-.51l.52,0-40.63-34.72-9.1,35.18C186.94,351.47,189.24,351.49,191.54,351.54Z"/><path class="cls-9" d="M117.69,353.38l-4.49-29L98.76,349l.27,4C105.25,353.33,111.47,353.42,117.69,353.38Z"/><path class="cls-10" d="M233.84,351c.95-.06-3.68-1.74-2.74-1.79l7-67-15.65-1.66-16.3,71.19C215.37,351.78,224.54,351.62,233.84,351Z"/><polygon class="cls-10" points="122.97 282 107.65 284.87 102.39 287.02 101.18 306.88 98.76 349.01 112.26 348.58 127.07 303.09 122.97 282"/><path class="cls-11" d="M124.92,349.56l48.91,2,4-.07,8.36-6.08L202.35,283l-79.71-8-10,23,7.18,41.84Z"/><polygon class="cls-12" points="202.35 282.98 122.64 275 116.3 289.6 153.4 334.5 222.45 280.55 202.35 282.98"/><path class="cls-13" d="M117.08,353.39h2.74c3.44,0,6.87-.12,10.31-.22l3.42-2.73L122.63,275l-15,9.87,4.61,63.71Z"/><polygon class="cls-14" points="144.09 264.85 122.64 274.99 122.65 275 122.64 275 158.15 318.1 204.76 277.53 205.91 267.76 144.09 264.85"/><path class="cls-10" d="M119.82,353.38c4.55-.05,9.1-.17,13.64-.32l.09-2.63-21.29-1.85,1.23,4.81Q116.66,353.41,119.82,353.38Z"/><path class="cls-13" d="M191.54,351.54c4.9.11,9.76.18,14.61.2l16.3-71.19-12.95-1.72-36.68,72.46.16.3C179.17,351.45,185.35,351.4,191.54,351.54Z"/><polygon class="cls-15" points="139.43 205.56 126.89 197.55 154.25 200.92 139.43 205.56"/><polygon class="cls-16" points="157.3 158 179.99 155.47 198.23 165.3 181.78 147.88 157.47 149.57 157.3 158"/><polygon class="cls-16" points="133.39 153.11 114.83 148.22 97.08 151.09 115 140.13 135.99 146.03 133.39 153.11"/><path class="cls-2" d="M114.67,162.66a6.75,6.75,0,1,1-6.51,6.74A6.63,6.63,0,0,1,114.67,162.66Z"/><path class="cls-2" d="M174.93,170.25a6.75,6.75,0,1,1-6.51,6.74A6.63,6.63,0,0,1,174.93,170.25Z"/><polygon class="cls-17" points="107.68 210.89 128.03 213.36 138.29 212.52 147.9 218.42 173.92 221.62 147.88 242.19 122.49 237.64 107.68 210.89"/><polygon class="cls-18" points="117.3 216.96 124.12 229.88 145.13 234.1 160.9 224.15 134.05 222.13 117.3 216.96"/><polygon class="cls-5" points="213.07 160.04 165.1 106.86 129.01 110.14 160.92 118.55 213.07 160.04"/><polygon class="cls-19" points="129.01 110.14 119.99 106.15 109.05 92.51 137.19 70 175.12 71.28 129.01 110.14"/><polygon class="cls-20" points="112.32 118.11 119.99 106.15 116.25 91.45 92.63 94.61 83 101.46 92.31 127.56 112.32 118.11"/><polygon class="cls-16" points="83 101.46 97.69 104.15 120.87 88.78 120.5 82.34 124.94 74 96.96 77.47 83 101.46"/><polygon class="cls-19" points="88.98 143.02 76.79 132.59 81.18 116.26 83 101.46 97.69 104.15 112.32 118.11 92.52 128.91 88.98 143.02"/><polygon class="cls-16" points="80.29 151.28 79.3 134.29 98.94 125.18 90.56 161.93 84.23 170.6 80.29 151.28"/><polygon class="cls-20" points="56.61 190.23 73.53 168.43 83.62 161.28 90.56 161.93 88.06 211.53 61.72 221.59 56.61 190.23"/><polygon class="cls-3" points="62.25 160.78 56.53 183.5 59.73 189.59 71.6 175.53 83.62 161.28 81.63 152.69 62.25 160.78"/><polygon class="cls-19" points="79.3 134.29 73.06 134.64 62.25 160.78 76.24 161 83.62 161.28 79.3 134.29"/><polygon class="cls-16" points="61.87 128.92 62.25 160.78 79.3 134.29 80.23 125.38 81.18 116.26 61.87 128.92"/><polygon class="cls-19" points="58.83 221.39 60.47 219.23 59.73 189.59 62.25 160.78 46.6 189.09 58.83 221.39"/><polygon class="cls-3" points="58.36 247.4 58.83 221.39 59.73 189.59 88.06 211.53 73.44 250.57 58.36 247.4"/><polygon class="cls-19" points="82 276.42 58.36 247.4 88.06 211.53 94.72 257.45 82 276.42"/><polygon class="cls-19" points="96.38 295.74 80.65 290.96 82 276.42 102.39 287.02 96.38 295.74"/><polygon class="cls-3" points="213.07 160.04 214.25 107.45 150.24 92.26 152.36 99.29 165.1 106.86 213.07 160.04"/><polygon class="cls-16" points="129.01 110.14 154.44 99.07 150.24 92.26 192.42 110.97 240.99 88.44 228.64 84.01 224.67 66.57 212.31 62.69 169.12 67.9 136.4 86.23 129.01 110.14"/><polygon class="cls-20" points="137.19 70 136.4 86.23 129.01 110.14 116.47 92.06 120.5 82.34 124.94 74 137.19 70"/><polygon class="cls-20" points="121.98 68.34 137.19 70 132.04 76.04 120.5 82.34 96.96 77.47 121.98 68.34"/><polygon class="cls-21" points="174.3 49.74 137.19 70 175.88 76.08 200.98 65.6 198.35 59.34 174.3 49.74"/><polygon class="cls-20" points="224.67 66.57 198.35 59.34 175.88 76.08 208.39 71.49 218.96 82.75 224.67 66.57"/><polygon class="cls-19" points="240.99 88.44 224.67 66.57 218.96 82.75 226.5 95.86 240.99 88.44"/><polygon class="cls-20" points="261.63 91.58 240.99 88.44 226.5 95.86 227.66 97.88 238.58 116.87 259.36 125.86 266.19 112.67 261.63 91.58"/><polygon class="cls-16" points="289.83 132.05 266.19 112.67 238.58 116.87 234.25 143.34 272.73 153.12 291.84 148.6 289.83 132.05"/><polygon class="cls-21" points="295.94 189.1 272.04 165.3 268.99 138.76 289.83 132.05 300.93 170.78 295.94 189.1"/><polygon class="cls-19" points="265.42 185.06 273.3 213.63 295.94 189.1 268.99 138.76 232.94 140.95 236.37 167.19 240.36 166.39 265.42 185.06"/><polygon class="cls-20" points="204.07 187.73 238.71 193.66 265.42 185.06 234.25 143.34 213.07 160.04 204.07 187.73"/><polygon class="cls-3" points="257.13 214.37 228.08 223.17 224.51 197.1 204.07 187.73 251.13 185.16 265.42 185.06 257.13 214.37"/><polygon class="cls-19" points="204.64 224.94 224.51 197.1 257.13 214.37 267.37 250.41 248.01 265.92 213.88 241.43 204.64 224.94"/><polygon class="cls-20" points="268.59 256.03 292.87 223.97 295.94 189.1 265.42 185.06 249.03 242.63 268.59 256.03"/><polygon class="cls-19" points="299.75 248.09 283.05 264.21 267.37 250.41 295.94 189.1 310.88 214.66 299.75 248.09"/><polygon class="cls-3" points="263.09 305.11 260.51 289.19 267.37 250.41 299.75 248.09 298.52 273.4 263.09 305.11"/><polygon class="cls-19" points="270.7 324.13 263.09 305.11 299.75 248.09 303.79 283.25 270.7 324.13"/><polygon class="cls-19" points="165.1 106.86 129.01 110.14 150.24 92.26 165.1 106.86"/><polygon class="cls-22" points="218.96 82.75 192.42 110.97 234.25 143.34 238.58 116.87 218.96 82.75"/><polygon class="cls-16" points="192.42 110.97 204.07 187.73 234.25 143.34 192.42 110.97"/><polygon class="cls-3" points="276.7 324.13 234.51 315.35 202.35 282.98 263.09 305.11 276.7 324.13"/><polygon class="cls-5" points="99.57 203.89 93.67 208.72 96.78 215.16 99.57 203.89"/><polygon class="cls-5" points="184.75 216.12 188.79 225.78 183.2 227.07 184.75 216.12"/><polygon class="cls-21" points="303.79 283.25 263.09 305.11 299.75 248.09 303.79 283.25"/><polygon class="cls-15" points="168.72 309.04 141.18 264.53 215.01 268.58 168.72 309.04"/><polygon class="cls-3" points="199.15 281.85 263.09 305.11 267.37 250.41 249.03 242.63 213.88 241.43 199.15 281.85"/><polygon class="cls-19" points="263.09 305.11 267.37 250.41 235.97 294.03 263.09 305.11"/><polyline class="cls-21" points="267.37 250.41 249.03 242.63 235.97 294.03 267.37 250.41"/><polygon class="cls-19" points="235.97 294.03 199.15 281.85 234.51 315.35 235.97 294.03"/></g></svg>